<svg width="24" height="24" viewBox="0 0 24 24" fill="none" xmlns="http://www.w3.org/2000/svg">
<circle cx="12" cy="12" r="12" fill="#646464"/>
<path d="M10.4 11.3489H7.77605C7.63644 11.1071 7.43598 10.906 7.19458 10.7656C6.95319 10.6253 6.67927 10.5506 6.40005 10.5489C5.9757 10.5489 5.56874 10.7175 5.26868 11.0175C4.96862 11.3176 4.80005 11.7245 4.80005 12.1489C4.80005 12.5732 4.96862 12.9802 5.26868 13.2803C5.56874 13.5803 5.9757 13.7489 6.40005 13.7489C6.67927 13.7472 6.95319 13.6725 7.19458 13.5321C7.43598 13.3918 7.63644 13.1907 7.77605 12.9489H10.4C10.6122 12.9489 10.8157 12.8646 10.9657 12.7146C11.1158 12.5645 11.2 12.3611 11.2 12.1489C11.2 11.9367 11.1158 11.7332 10.9657 11.5832C10.8157 11.4332 10.6122 11.3489 10.4 11.3489Z" fill="white"/>
<path d="M12.4 15.6129C13.008 15.2618 13.5129 14.7569 13.8639 14.1488C14.215 13.5407 14.3998 12.851 14.3998 12.1489C14.3998 11.4468 14.215 10.757 13.8639 10.149C13.5129 9.54092 13.008 9.03597 12.4 8.68488C12.2171 8.58924 12.0044 8.56794 11.8062 8.62543C11.6081 8.68292 11.4398 8.81476 11.3365 8.9934C11.2333 9.17204 11.203 9.38367 11.2521 9.58408C11.3012 9.78449 11.4258 9.95819 11.6 10.0689C11.9655 10.2793 12.2692 10.5824 12.4803 10.9475C12.6915 11.3127 12.8026 11.7271 12.8026 12.1489C12.8026 12.5707 12.6915 12.9851 12.4803 13.3502C12.2692 13.7154 11.9655 14.0184 11.6 14.2289C11.5057 14.2818 11.4231 14.3532 11.3573 14.4389C11.2914 14.5245 11.2435 14.6227 11.2166 14.7273C11.1897 14.832 11.1843 14.941 11.2007 15.0479C11.217 15.1547 11.2549 15.2571 11.312 15.3489C11.3818 15.4698 11.482 15.5703 11.6027 15.6405C11.7234 15.7107 11.8603 15.748 12 15.7489C12.1431 15.7402 12.2812 15.6932 12.4 15.6129Z" fill="white"/>
<path d="M13.1441 17.9329C14.2392 17.4142 15.1645 16.5952 15.8125 15.5713C16.4605 14.5474 16.8045 13.3606 16.8045 12.1489C16.8045 10.9371 16.4605 9.7503 15.8125 8.72639C15.1645 7.70248 14.2392 6.88355 13.1441 6.36486C12.9521 6.27363 12.7317 6.26241 12.5314 6.33367C12.3311 6.40493 12.1673 6.55284 12.0761 6.74486C11.9848 6.93688 11.9736 7.15727 12.0449 7.35756C12.1162 7.55785 12.2641 7.72163 12.4561 7.81286C13.2763 8.20234 13.9692 8.81648 14.4544 9.58398C14.9396 10.3515 15.1972 11.2409 15.1972 12.1489C15.1972 13.0569 14.9396 13.9462 14.4544 14.7137C13.9692 15.4812 13.2763 16.0954 12.4561 16.4849C12.2888 16.561 12.1529 16.6924 12.0711 16.857C11.9893 17.0216 11.9667 17.2094 12.0071 17.3887C12.0475 17.568 12.1483 17.7279 12.2927 17.8416C12.4372 17.9553 12.6163 18.0157 12.8001 18.0129C12.919 18.0102 13.0361 17.9829 13.1441 17.9329V17.9329Z" fill="white"/>
<path d="M13.9198 4.08488C13.8228 4.0362 13.7168 4.00779 13.6084 4.00139C13.4999 3.99499 13.3914 4.01073 13.2892 4.04766C13.1871 4.08459 13.0935 4.14192 13.0143 4.21618C12.935 4.29043 12.8717 4.38004 12.8282 4.47956C12.7847 4.57907 12.7619 4.6864 12.7612 4.795C12.7606 4.90361 12.782 5.01121 12.8243 5.11126C12.8665 5.21131 12.9287 5.3017 13.007 5.37694C13.0854 5.45218 13.1782 5.51068 13.2798 5.54888C14.5645 6.10896 15.6577 7.03177 16.4256 8.20414C17.1934 9.3765 17.6023 10.7475 17.6023 12.1489C17.6023 13.5503 17.1934 14.9213 16.4256 16.0936C15.6577 17.266 14.5645 18.1888 13.2798 18.7489C13.183 18.7906 13.0953 18.8511 13.0219 18.9269C12.9485 19.0027 12.8908 19.0922 12.8521 19.1903C12.8135 19.2885 12.7946 19.3933 12.7966 19.4988C12.7986 19.6042 12.8215 19.7083 12.8638 19.8049C12.9263 19.948 13.0293 20.0697 13.16 20.155C13.2908 20.2403 13.4437 20.2854 13.5998 20.2849C13.7103 20.2832 13.8193 20.2587 13.9198 20.2129C15.4884 19.5276 16.823 18.3997 17.7603 16.9674C18.6976 15.5351 19.1968 13.8606 19.1968 12.1489C19.1968 10.4372 18.6976 8.76261 17.7603 7.33032C16.823 5.89802 15.4884 4.77016 13.9198 4.08488V4.08488Z" fill="white"/>
</svg>
