<svg width="24" height="24" viewBox="0 0 24 24" fill="none" xmlns="http://www.w3.org/2000/svg">
<circle cx="12" cy="12" r="12" fill="#646464"/>
<path d="M11.545 18.8344C11.0001 18.6395 10.8833 18.3747 10.6598 16.823C10.3999 15.0192 10.3433 13.9028 10.4937 13.5491C10.6933 13.0803 11.2351 12.8143 11.993 12.8113C12.7448 12.8082 13.2915 13.0767 13.4924 13.5491C13.6434 13.9022 13.5868 15.0192 13.3268 16.823C13.1503 18.0831 13.0529 18.4015 12.8094 18.6158C12.4746 18.9123 11.9997 18.9945 11.5492 18.835L11.545 18.8344ZM9.21769 16.9837C7.33662 16.0584 6.13128 14.4927 5.69297 12.4095C5.58339 11.872 5.56513 10.5893 5.66862 10.0962C5.94256 8.77215 6.46609 7.73665 7.33662 6.82107C8.59067 5.49885 10.2039 4.79999 11.9997 4.79999C13.7773 4.79999 15.3844 5.48606 16.608 6.76872C17.5394 7.73665 18.063 8.76119 18.3308 10.1108C18.4221 10.5601 18.4221 11.7849 18.3369 12.2902C18.0569 13.8876 17.1681 15.3425 15.8714 16.3202C15.4088 16.6696 14.2765 17.2796 14.0939 17.2796C14.0269 17.2796 14.0208 17.2102 14.0512 16.9295C14.106 16.4791 14.1608 16.3853 14.4165 16.2782C14.8244 16.1077 15.5184 15.6134 15.9445 15.186C16.6811 14.4555 17.2229 13.4998 17.4725 12.4953C17.6308 11.8683 17.6125 10.4742 17.436 9.82896C16.882 7.77743 15.2079 6.18248 13.1564 5.75635C12.5598 5.6346 11.4762 5.6346 10.8735 5.75635C8.79765 6.18248 7.08094 7.85657 6.55741 9.96288C6.41739 10.5351 6.41739 11.9292 6.55741 12.5014C6.9044 13.8955 7.80537 15.1739 8.98636 15.9348C9.21769 16.087 9.49772 16.2453 9.61338 16.294C9.86906 16.4036 9.92385 16.4949 9.97255 16.9454C10.003 17.2193 9.9969 17.2984 9.92994 17.2984C9.88733 17.2984 9.57686 17.1645 9.24813 17.0062L9.21769 16.9837ZM9.24204 14.5073C8.60893 14.002 8.04887 13.1059 7.81754 12.2269C7.67753 11.696 7.67753 10.6867 7.82363 10.1571C8.20715 8.72771 9.2603 7.61977 10.7213 7.09928C11.2205 6.92274 12.3285 6.88317 12.9433 7.01892C15.0618 7.49071 16.5654 9.61224 16.2732 11.7167C16.1576 12.5647 15.8654 13.2611 15.3479 13.9083C15.0922 14.2352 14.4713 14.7837 14.3617 14.7837C14.3435 14.7837 14.3252 14.5767 14.3252 14.3247V13.8644L14.6417 13.487C15.8349 12.0576 15.7497 10.0609 14.4469 8.75084C13.9417 8.2407 13.3573 7.94119 12.6024 7.803C12.1154 7.71291 12.0119 7.71291 11.5005 7.79692C10.7244 7.92354 10.1229 8.22426 9.58903 8.75267C8.2802 10.0493 8.19497 12.0564 9.38814 13.487L9.70226 13.8644V14.3271C9.70226 14.5828 9.68217 14.7897 9.65721 14.7897C9.63286 14.7897 9.45632 14.668 9.26761 14.5158L9.24204 14.5073ZM11.3544 12.0217C10.8126 11.7697 10.5204 11.2942 10.5143 10.6745C10.5143 10.1175 10.8248 9.63172 11.3605 9.34743C11.7014 9.16845 12.3041 9.16845 12.645 9.34865C13.0164 9.54162 13.3207 9.91601 13.4364 10.3068C13.7895 11.5073 12.5172 12.5592 11.3666 12.0217H11.3544Z" fill="white"/>
<path d="M12.0959 12.2579C12.9344 12.2579 13.6141 11.5782 13.6141 10.7397C13.6141 9.90118 12.9344 9.22144 12.0959 9.22144C11.2574 9.22144 10.5776 9.90118 10.5776 10.7397C10.5776 11.5782 11.2574 12.2579 12.0959 12.2579Z" fill="white"/>
<path d="M12.2412 12.846C12.3465 12.86 12.5559 12.8874 12.7495 12.9495C12.9443 13.0104 13.1208 13.1059 13.2584 13.204C13.3923 13.3014 13.4897 13.4024 13.5506 13.5254C13.6115 13.6484 13.6419 13.7945 13.6602 14.0337C13.6724 14.2736 13.6724 14.6059 13.6176 15.2269C13.5628 15.846 13.4532 16.7536 13.368 17.335C13.2828 17.9194 13.2219 18.1751 13.1427 18.3638C13.0636 18.5586 12.9601 18.6865 12.8445 18.7778C12.7288 18.8691 12.5949 18.9239 12.467 18.9543C12.3392 18.9847 12.2235 18.9847 12.1139 18.9847C12.0044 18.9847 11.9009 18.9847 11.7609 18.9543C11.6208 18.9239 11.4382 18.8691 11.3043 18.7595C11.1643 18.6499 11.073 18.4917 10.9999 18.2847C10.9269 18.0777 10.8721 17.8281 10.799 17.3289C10.726 16.8297 10.6286 16.087 10.5677 15.5209C10.5068 14.9548 10.4825 14.5651 10.4776 14.3034C10.4715 14.0416 10.4837 13.9119 10.5141 13.7859C10.5446 13.6642 10.5933 13.5485 10.6602 13.4511C10.7272 13.3537 10.8148 13.2685 10.9037 13.2015C10.9908 13.1346 11.0803 13.0859 11.1874 13.0481C11.2933 13.0055 11.4206 12.969 11.577 12.9385C11.7353 12.9081 11.9179 12.8777 12.0117 12.8655C12.1054 12.8515 12.1054 12.8515 12.2101 12.8655L12.2412 12.846Z" fill="white"/>
</svg>
