<svg width="24" height="24" viewBox="0 0 24 24" fill="none" xmlns="http://www.w3.org/2000/svg">
<circle cx="12" cy="12" r="12" fill="#646464"/>
<path d="M12.965 12.7535C13.091 12.7535 13.1967 12.7636 13.316 12.7873C13.9415 12.911 14.4545 13.3655 14.6637 13.9606C14.7245 14.1519 14.8044 14.4388 14.855 14.6356L14.9214 14.8955L15.1891 14.8899C17.3199 14.8449 19.0625 13.1113 19.0625 10.9625C19.0625 7.70788 16.3479 5 12.2 5C10.4889 5.00563 8.86662 5.62775 7.63813 6.629C6.02825 7.94863 5 9.9545 5 12.2C5.00112 12.776 5.07087 13.3554 5.20025 13.8909C5.67275 15.8518 6.94625 17.4999 8.65513 18.4674C9.689 19.0501 10.9254 19.3955 12.2 19.3989C12.5127 19.3989 12.8311 19.3775 13.1326 19.3393C15.008 19.0963 16.6561 18.1321 17.7912 16.736L17.8655 16.6449L17.7215 16.124L17.4436 16.1971C16.5819 16.4255 15.6987 16.5436 14.7661 16.5425C14.0202 16.5425 13.3093 16.466 12.6073 16.3175C11.975 16.1904 11.4609 15.7303 11.2584 15.1295C11.1931 14.9405 11.1639 14.765 11.165 14.5546C11.1582 14.0855 11.3191 13.6996 11.6094 13.37C11.9401 12.992 12.425 12.7535 12.965 12.7535ZM12.2 5.675C16.0385 5.675 18.3875 8.141 18.3875 10.9625C18.3875 12.6489 17.087 14.0338 15.4366 14.2003C15.3927 14.0439 15.3455 13.8785 15.305 13.7525C14.2599 10.4788 11.7714 7.94413 8.56962 6.77413C9.61025 6.06763 10.8376 5.6705 12.2 5.675ZM5.675 12.2C5.675 10.2301 6.548 8.46388 7.92837 7.26688C10.5541 8.10838 12.7062 9.905 13.9629 12.2889C13.7997 12.2169 13.6276 12.1618 13.4476 12.1258C12.7164 11.9739 11.9412 11.8895 11.1639 11.8895C9.21987 11.8929 7.35687 12.4048 5.76387 13.2845C5.70425 12.9324 5.675 12.5746 5.675 12.2ZM12.4689 16.979C13.2035 17.1331 13.9842 17.2175 14.7661 17.2175C15.3635 17.2175 15.9575 17.168 16.5346 17.0769C15.6234 17.888 14.4837 18.446 13.2237 18.6451C12.7445 18.0826 12.3282 17.4751 11.9806 16.826C12.1359 16.8924 12.299 16.9441 12.4689 16.979ZM12.4183 18.7216C12.3463 18.7239 12.2731 18.725 12.2 18.725C11.1054 18.7284 10.1086 18.4708 9.20412 17.9994C9.464 16.8553 9.90725 15.7944 10.5069 14.8336C10.5271 15.0103 10.5665 15.1858 10.6182 15.3421C11.0199 16.5673 11.6398 17.7204 12.4183 18.7216ZM11.1031 12.9234C9.93087 14.2374 9.0455 15.8709 8.59775 17.6416C7.31187 16.7889 6.34662 15.4929 5.918 13.9719C7.46937 13.0674 9.23675 12.5611 11.1639 12.5645C11.2719 12.5645 11.3788 12.5656 11.4856 12.569C11.3461 12.6736 11.2179 12.7918 11.1031 12.9234Z" fill="white"/>
</svg>
