<svg width="24" height="24" viewBox="0 0 24 24" fill="none" xmlns="http://www.w3.org/2000/svg">
<circle cx="12" cy="12" r="12" fill="#646464"/>
<path d="M12 4.79999C8.02366 4.79999 4.80005 8.02352 4.80005 11.9999C4.80005 15.9764 8.02366 19.1996 12 19.1996C15.9768 19.1996 19.2 15.9764 19.2 11.9999C19.2 8.02377 15.9768 4.80033 11.9999 4.80033L12 4.79999V4.79999ZM15.3019 15.1843C15.1729 15.3958 14.896 15.4628 14.6845 15.333C12.9941 14.3004 10.866 14.0666 8.35975 14.6392C8.11824 14.6942 7.8775 14.5429 7.82248 14.3013C7.7672 14.0597 7.91791 13.819 8.16002 13.7639C10.9027 13.1371 13.2553 13.4071 15.1531 14.567C15.3646 14.6968 15.4317 14.9728 15.3019 15.1843V15.1843ZM16.1831 13.2236C16.0206 13.4879 15.675 13.5713 15.411 13.4088C13.4757 12.219 10.5256 11.8745 8.23646 12.5694C7.93958 12.659 7.62602 12.4917 7.53592 12.1954C7.4465 11.8985 7.6139 11.5855 7.91026 11.4953C10.5251 10.7019 13.7758 11.0862 15.9983 12.4519C16.2622 12.6144 16.3456 12.96 16.1831 13.2237V13.2236ZM16.2588 11.1821C13.9383 9.80384 10.1097 9.67711 7.89418 10.3495C7.53841 10.4574 7.16218 10.2566 7.05436 9.90082C6.94655 9.54488 7.14722 9.1689 7.50325 9.06074C10.0465 8.28867 14.2744 8.43784 16.9461 10.0239C17.2668 10.2138 17.3717 10.6271 17.1817 10.9466C16.9925 11.2666 16.5781 11.3721 16.2591 11.1821H16.2588Z" fill="white"/>
</svg>
